<?xml version="1.0" standalone="no"?>
<!DOCTYPE svg PUBLIC "-//W3C//DTD SVG 20010904//EN"
 "http://www.w3.org/TR/2001/REC-SVG-20010904/DTD/svg10.dtd">
<svg version="1.0" xmlns="http://www.w3.org/2000/svg"
 width="512.000000pt" height="512.000000pt" viewBox="0 0 512.000000 512.000000"
 preserveAspectRatio="xMidYMid meet">

<g transform="translate(0.000000,512.000000) scale(0.100000,-0.100000)"
fill="#000000" stroke="none">
<path d="M2565 5108 c-310 -29 -581 -250 -673 -550 -51 -163 -49 -320 3 -487
83 -261 317 -471 587 -527 94 -20 247 -19 339 2 269 59 495 267 586 539 24 72
27 95 27 230 1 130 -2 160 -22 225 -69 222 -221 399 -427 496 -136 64 -267 86
-420 72z m29 -344 c33 -32 7 -60 -64 -68 -77 -8 -169 -56 -224 -117 -47 -52
-86 -138 -86 -189 0 -16 -5 -41 -10 -55 -8 -21 -16 -26 -38 -23 -24 3 -27 7
-30 46 -3 46 19 135 48 192 63 123 217 218 372 229 9 0 24 -6 32 -15z"/>
<path d="M5091 1952 c-7 -18 -35 -52 -61 -75 -64 -58 -2171 -1321 -2258 -1353
-177 -67 -359 -70 -534 -10 -42 15 -441 241 -1055 597 -543 315 -1011 588
-1039 606 -76 50 -114 108 -125 188 -3 28 -7 -59 -8 -193 0 -136 3 -250 8
-260 6 -9 13 -33 16 -53 7 -45 39 -93 85 -130 19 -15 487 -289 1040 -610 750
-435 1026 -590 1087 -611 97 -34 227 -48 333 -37 172 18 157 10 1335 717 599
359 1101 663 1113 675 13 12 36 45 50 72 26 48 27 58 30 230 2 99 2 203 0 230
l-3 50 -14 -33z"/>
<path d="M2443 1072 c-200 -71 -179 -234 36 -272 116 -21 249 16 311 86 53 61
30 132 -57 175 -65 33 -213 38 -290 11z"/>
</g>
</svg>
